<svg xmlns="http://www.w3.org/2000/svg" width="19" height="19" viewBox="0 0 19 19" fill="none">
  <path d="M17.7333 10.074H15.4375V2.47396C15.4375 1.77551 14.8693 1.20729 14.1708 1.20729H6.4125C5.71405 1.20729 5.14583 1.77551 5.14583 2.47396V4.70337C5.14583 4.87825 5.28762 5.02004 5.4625 5.02004C5.63738 5.02004 5.77917 4.87825 5.77917 4.70337V2.47396C5.77917 2.12475 6.0633 1.84062 6.4125 1.84062H8.70833V3.74502C8.70833 4.28763 9.15222 4.69585 9.65774 4.69585C9.91749 4.69585 10.0664 4.60303 10.2917 4.49049L10.5002 4.59471C11.1325 4.91094 11.875 4.45047 11.875 3.74502V3.14561C11.875 2.97073 11.7332 2.82894 11.5583 2.82894C11.3835 2.82894 11.2417 2.97073 11.2417 3.14561V3.74506C11.2417 3.97967 10.9949 4.13384 10.7834 4.02828L10.4333 3.85324C10.3441 3.80863 10.2392 3.80863 10.1501 3.85324L9.79992 4.02828C9.58978 4.13337 9.34167 3.98086 9.34167 3.74506V1.84062H14.1708C14.52 1.84062 14.8042 2.12475 14.8042 2.47396V10.074H12.5479C11.8495 10.074 11.2812 10.6422 11.2812 11.3406V16.526C11.2812 16.8752 10.9971 17.1594 10.6479 17.1594H1.26667C0.917463 17.1594 0.633333 16.8752 0.633333 16.526V7.14479C0.633333 6.79559 0.917463 6.51146 1.26667 6.51146H7.56042V9.16683C7.56042 9.29531 7.41598 9.37028 7.31088 9.29626L7.11455 9.15788C7.00613 9.08144 6.86153 9.08081 6.75228 9.15606L6.14662 9.5739C6.03903 9.64816 5.89451 9.64812 5.787 9.5739L5.18134 9.15606C5.07213 9.08069 4.92749 9.0814 4.81907 9.15788L4.62278 9.29626C4.51772 9.37024 4.37325 9.29539 4.37325 9.16683V7.74749C4.37325 7.57261 4.23146 7.43082 4.05658 7.43082C3.8817 7.43082 3.73991 7.57261 3.73991 7.74749V9.16683C3.73991 9.78785 4.44081 10.1994 5.00349 9.80273L5.42735 10.0952C5.74991 10.3178 6.18355 10.3178 6.50627 10.0952L6.93013 9.80273C7.48968 10.1967 8.19375 9.79204 8.19375 9.16683V6.51146H10.6479C10.9971 6.51146 11.2812 6.79559 11.2812 7.14479V8.93879C11.2812 9.11367 11.423 9.25545 11.5979 9.25545C11.7728 9.25545 11.9146 9.11367 11.9146 8.93879V7.14479C11.9146 6.44634 11.3464 5.87812 10.6479 5.87812H1.26667C0.568219 5.87812 0 6.44634 0 7.14479V16.526C0 17.2245 0.568219 17.7927 1.26667 17.7927H10.6479C11.3464 17.7927 11.9146 17.2245 11.9146 16.526V11.3406C11.9146 10.9914 12.1987 10.7073 12.5479 10.7073H16.0708V12.2159C16.0708 12.4509 15.8237 12.6044 15.6125 12.4991L15.2624 12.324C15.1733 12.2794 15.0684 12.2794 14.9792 12.324L14.6291 12.4991C14.4185 12.6044 14.1708 12.4513 14.1708 12.2159V11.6203C14.1708 11.4454 14.029 11.3037 13.8542 11.3037C13.6793 11.3037 13.5375 11.4454 13.5375 11.6203V12.2159C13.5375 12.7585 13.9815 13.1667 14.4869 13.1667C14.7469 13.1667 14.8962 13.0736 15.1208 12.9613L15.3293 13.0655C15.9617 13.3818 16.7042 12.9213 16.7042 12.2159V10.7073H17.7333C18.0825 10.7073 18.3667 10.9914 18.3667 11.3406V16.526C18.3667 16.8752 18.0825 17.1594 17.7333 17.1594H13.5643C13.3895 17.1594 13.2477 17.3012 13.2477 17.476C13.2477 17.6509 13.3895 17.7927 13.5643 17.7927H17.7333C18.4318 17.7927 19 17.2245 19 16.526V11.3406C19 10.6422 18.4318 10.074 17.7333 10.074Z" fill="black"/>
  <path d="M2.09814 13.9531V15.9323C2.09814 16.1072 2.23993 16.2489 2.41481 16.2489C2.58969 16.2489 2.73148 16.1072 2.73148 15.9323V13.9531C2.73148 13.7782 2.58969 13.6364 2.41481 13.6364C2.23993 13.6364 2.09814 13.7782 2.09814 13.9531Z" fill="black"/>
  <path d="M3.83936 14.7052V15.9323C3.83936 16.1072 3.98114 16.249 4.15602 16.249C4.3309 16.249 4.47269 16.1072 4.47269 15.9323V14.7052C4.47269 14.5303 4.3309 14.3885 4.15602 14.3885C3.98114 14.3885 3.83936 14.5303 3.83936 14.7052Z" fill="black"/>
  <path d="M14.0919 16.0115V15.3781C14.0919 15.2032 13.9501 15.0615 13.7752 15.0615H13.1419C12.967 15.0615 12.8252 15.2032 12.8252 15.3781V16.0115C12.8252 16.1863 12.967 16.3281 13.1419 16.3281H13.7752C13.9501 16.3281 14.0919 16.1863 14.0919 16.0115Z" fill="black"/>
</svg>