<svg xmlns="http://www.w3.org/2000/svg" width="21" height="20" viewBox="0 0 21 20" fill="none">
  <path d="M15.5313 0C13.2019 0 11.278 2.16357 10.5 3.1847C9.72197 2.16357 7.7981 0 5.46874 0C2.45327 0 0 2.77241 0 6.1797C0 8.03865 0.737871 9.77111 2.02941 10.9567C2.0482 10.9892 2.07129 11.0191 2.0982 11.046L10.1911 19.1223C10.2765 19.2073 10.3881 19.25 10.5 19.25C10.6119 19.25 10.7239 19.2073 10.8093 19.1219L19.1714 10.7628L19.2577 10.679C19.3261 10.6145 19.3936 10.5491 19.4692 10.4654C19.5008 10.4343 19.5268 10.3992 19.5469 10.3612C20.4848 9.21272 21 7.73144 21 6.1797C21 2.77241 18.5468 0 15.5313 0ZM18.8189 9.86897C18.8069 9.88308 18.7958 9.89801 18.786 9.91339C18.745 9.9604 18.7001 10.0018 18.6557 10.0442L10.4996 18.1943L2.81642 10.5265C2.79165 10.4778 2.75703 10.4333 2.71474 10.3962C1.54535 9.37506 0.874986 7.83825 0.874986 6.1797C0.874986 3.25475 2.93561 0.875027 5.46874 0.875027C7.97327 0.875027 10.1108 4.14176 10.1321 4.17465C10.2937 4.42415 10.7063 4.42415 10.8679 4.17465C10.8892 4.14176 13.0267 0.875027 15.5313 0.875027C18.0644 0.875027 20.125 3.25479 20.125 6.1797C20.125 7.55799 19.661 8.86836 18.8189 9.86897Z" fill="#ED1D24"/>
</svg>