<svg xmlns="http://www.w3.org/2000/svg" width="12" height="16" viewBox="0 0 12 16" fill="none">
  <path d="M5.86367 0.47998C4.30907 0.481635 2.81864 1.0636 1.71937 2.09821C0.620101 3.13282 0.00175839 4.53558 0 5.99873C0 8.95053 5.37227 15.141 5.60095 15.4031C5.63285 15.4396 5.67295 15.4691 5.71838 15.4893C5.7638 15.5095 5.81343 15.52 5.86367 15.52C5.91392 15.52 5.96354 15.5095 6.00897 15.4893C6.05439 15.4691 6.0945 15.4396 6.12639 15.4031C6.35508 15.141 11.7273 8.95053 11.7273 5.99873C11.7256 4.53558 11.1072 3.13282 10.008 2.09821C8.9087 1.0636 7.41828 0.481635 5.86367 0.47998ZM5.86367 14.6885C4.77494 13.3952 0.68 8.37264 0.68 5.99874C0.68 5.35805 0.81408 4.72364 1.07458 4.13172C1.33509 3.5398 1.71691 3.00197 2.19826 2.54894C2.67961 2.0959 3.25105 1.73654 3.87997 1.49136C4.50888 1.24618 5.18294 1.11999 5.86367 1.11999C6.5444 1.11999 7.21847 1.24618 7.84738 1.49136C8.47629 1.73654 9.04773 2.0959 9.52908 2.54894C10.0104 3.00197 10.3923 3.5398 10.6528 4.13172C10.9133 4.72364 11.0473 5.35805 11.0473 5.99874C11.0473 8.37264 6.9524 13.3952 5.86367 14.6885Z" fill="black"/>
  <path d="M5.86361 3.5624C5.39032 3.5624 4.92765 3.6945 4.53412 3.94198C4.14058 4.18946 3.83386 4.54122 3.65274 4.95276C3.47162 5.36431 3.42423 5.81717 3.51656 6.25406C3.6089 6.69096 3.83681 7.09228 4.17148 7.40726C4.50616 7.72225 4.93255 7.93675 5.39676 8.02366C5.86096 8.11056 6.34212 8.06596 6.77939 7.89549C7.21666 7.72502 7.5904 7.43634 7.85335 7.06596C8.1163 6.69558 8.25665 6.26012 8.25665 5.81467C8.25592 5.21754 8.00356 4.64507 7.55494 4.22283C7.10632 3.8006 6.49806 3.56309 5.86361 3.5624ZM5.86361 7.42693C5.52481 7.42693 5.19361 7.33238 4.9119 7.15522C4.6302 6.97806 4.41063 6.72626 4.28098 6.43166C4.15132 6.13705 4.1174 5.81288 4.1835 5.50013C4.24959 5.18738 4.41275 4.9001 4.65232 4.67462C4.89189 4.44915 5.19712 4.29559 5.52942 4.23338C5.86171 4.17117 6.20615 4.2031 6.51916 4.32513C6.83218 4.44716 7.09972 4.65381 7.28795 4.91894C7.47618 5.18408 7.57665 5.49579 7.57665 5.81467C7.57613 6.24212 7.39548 6.65192 7.07434 6.95417C6.75319 7.25642 6.31778 7.42644 5.86361 7.42693Z" fill="black"/>
</svg>