<svg xmlns="http://www.w3.org/2000/svg" width="16" height="16" viewBox="0 0 16 16" fill="none">
  <path d="M5.21754 10.8202C6.5543 12.1548 8.01852 13.3553 9.58924 14.4045C10.2598 14.8522 11.0644 15.0545 11.8669 14.9772C12.6694 14.9 13.4206 14.548 13.9935 13.9807L14.4971 13.477C14.8171 13.1541 14.9966 12.7178 14.9966 12.2631C14.9966 11.8084 14.8171 11.3721 14.4971 11.0491L13.2524 9.80444C13.0794 9.63596 12.8734 9.50517 12.6473 9.4203C12.4212 9.33544 12.1799 9.29835 11.9388 9.31137C11.6976 9.32439 11.4618 9.38724 11.2461 9.49596C11.0305 9.60467 10.8397 9.7569 10.6858 9.94303C10.5853 10.0447 10.453 10.1088 10.3109 10.1249C10.1689 10.141 10.0256 10.108 9.90491 10.0314C8.31683 9.02775 6.97243 7.68276 5.96949 6.09425C5.89374 5.97384 5.86148 5.83112 5.87809 5.68983C5.89471 5.54854 5.95918 5.4172 6.0608 5.31764C6.24719 5.16394 6.39965 4.97322 6.50853 4.75755C6.61741 4.54189 6.68033 4.30597 6.69333 4.06473C6.70633 3.82348 6.66911 3.58217 6.58403 3.35605C6.49895 3.12994 6.36787 2.92394 6.19907 2.75111L4.95448 1.50636C4.63224 1.18484 4.19563 1.00428 3.74043 1.00428C3.28523 1.00428 2.84861 1.18484 2.52638 1.50636L2.02259 2.01025C1.4569 2.57478 1.10322 3.31714 1.02121 4.11211C0.939197 4.90708 1.13387 5.70601 1.5724 6.37415C2.63675 7.97356 3.85783 9.46293 5.21754 10.8202ZM2.37611 2.36377C2.74501 1.99469 3.16733 1.466 3.74051 1.50419C3.90029 1.50388 4.05856 1.53515 4.20622 1.59618C4.35388 1.65722 4.48803 1.74683 4.60097 1.85986L5.8456 3.10461C5.96785 3.23128 6.06197 3.38234 6.12178 3.5479C6.18159 3.71347 6.20575 3.8898 6.19268 4.06536C6.17961 4.24091 6.12959 4.41172 6.04592 4.5666C5.96224 4.72148 5.84679 4.85693 5.70712 4.96409C5.52491 5.14364 5.40963 5.38014 5.38043 5.63428C5.35124 5.88842 5.40989 6.1449 5.54665 6.36109C6.58926 8.01247 7.98688 9.41067 9.63782 10.454C9.85424 10.5919 10.1114 10.6515 10.3664 10.6228C10.6214 10.5942 10.8589 10.479 11.0393 10.2965C11.1603 10.1471 11.3121 10.0258 11.4845 9.94069C11.6568 9.85562 11.8455 9.8089 12.0376 9.80372C12.1975 9.80295 12.3559 9.83387 12.5037 9.89467C12.6516 9.95547 12.7859 10.045 12.8989 10.158L14.1436 11.4026C14.2569 11.5153 14.3468 11.6494 14.408 11.7971C14.4691 11.9448 14.5004 12.1032 14.5 12.2631C14.5396 12.8354 14.0024 13.2649 13.64 13.6272C13.149 14.1129 12.5053 14.4142 11.8178 14.4801C11.1303 14.5459 10.4411 14.3723 9.86683 13.9885C6.74629 11.9032 4.06895 9.22134 1.9889 6.09729C1.61399 5.52544 1.44779 4.84179 1.51833 4.16165C1.58887 3.48151 1.89183 2.84651 2.37611 2.36377Z" fill="black"/>
  <path d="M8.08521 1.71387C11.42 1.64423 14.3592 4.58366 14.2896 7.91825C14.2907 7.98385 14.3175 8.04639 14.3643 8.0924C14.4111 8.1384 14.4741 8.16418 14.5397 8.16417C14.6053 8.16416 14.6683 8.13837 14.715 8.09236C14.7618 8.04634 14.7886 7.98379 14.7897 7.91819C14.8646 4.31515 11.6894 1.13929 8.08614 1.21392C8.02048 1.21477 7.95778 1.24141 7.91161 1.2881C7.86543 1.33479 7.83948 1.39777 7.83936 1.46344C7.83923 1.52911 7.86495 1.59218 7.91096 1.63904C7.95696 1.6859 8.01956 1.71278 8.08521 1.71387Z" fill="black"/>
  <path d="M7.83569 5.57104C7.8357 5.63735 7.86204 5.70093 7.90892 5.74782C7.9558 5.7947 8.01939 5.82104 8.08569 5.82104C8.64098 5.82372 9.17275 6.04549 9.5654 6.43815C9.95805 6.8308 10.1798 7.36258 10.1825 7.91786C10.1825 7.95069 10.1889 7.98321 10.2015 8.01354C10.2141 8.04387 10.2325 8.07143 10.2557 8.09464C10.2789 8.11786 10.3065 8.13627 10.3368 8.14884C10.3672 8.1614 10.3997 8.16787 10.4325 8.16787C10.4653 8.16787 10.4978 8.1614 10.5282 8.14883C10.5585 8.13627 10.5861 8.11785 10.6093 8.09463C10.6325 8.07142 10.6509 8.04386 10.6635 8.01352C10.676 7.98319 10.6825 7.95068 10.6825 7.91785C10.6824 7.22916 10.4088 6.5687 9.92182 6.08172C9.43484 5.59475 8.77438 5.32113 8.08569 5.32104C8.01939 5.32105 7.9558 5.34739 7.90892 5.39427C7.86204 5.44116 7.8357 5.50474 7.83569 5.57104Z" fill="black"/>
  <path d="M12.2361 7.91809C12.237 7.98375 12.2638 8.04639 12.3106 8.09248C12.3574 8.13857 12.4204 8.1644 12.4861 8.1644C12.5517 8.1644 12.6148 8.13856 12.6616 8.09247C12.7083 8.04638 12.7351 7.98374 12.7361 7.91808C12.7877 5.41823 10.5854 3.21583 8.0854 3.26749C8.01995 3.26878 7.9576 3.29568 7.91177 3.34243C7.86594 3.38917 7.84026 3.45203 7.84027 3.5175C7.84028 3.58297 7.86596 3.64582 7.91181 3.69256C7.95765 3.73929 8.02 3.76619 8.08545 3.76745C9.18469 3.77257 10.2374 4.21152 11.0147 4.98881C11.792 5.76609 12.231 6.81885 12.2361 7.91809Z" fill="black"/>
</svg>