<svg width="106" height="22" viewBox="0 0 106 22" fill="none" xmlns="http://www.w3.org/2000/svg">
<g clip-path="url(#clip0_300_3089)">
<path fill-rule="evenodd" clip-rule="evenodd" d="M49.2852 8.90269C49.2852 9.68632 48.7291 10.1492 47.8886 10.1492H45.0722V7.74407H47.8886C48.9541 7.74407 49.2852 8.47597 49.2852 8.90269ZM49.4688 11.9699C50.6558 11.0596 51.1783 10.113 51.0929 8.89494C50.9714 7.11822 49.536 5.92856 47.899 5.92856H43.2076V16.1932H45.0722V11.9699H47.2757L49.9111 16.1932H52.1145L49.4688 11.9699Z" fill="#999999"/>
<path fill-rule="evenodd" clip-rule="evenodd" d="M29.0035 12.355L31.4112 16.1878L33.6302 16.1903L30.2113 10.7567L29.0035 12.355Z" fill="#999999"/>
<path fill-rule="evenodd" clip-rule="evenodd" d="M32.9526 5.92856H30.5836L25.7034 12.4147V5.92856H23.8284V15.2828C23.8284 15.6243 24.0302 16.051 24.5655 16.1751C24.7802 16.2242 25.2043 16.1725 25.4577 15.8363C25.4888 15.795 32.95 5.92856 32.95 5.92856" fill="#999999"/>
<path d="M40.7862 10.1518H37.1033V11.9698H40.7862V10.1518Z" fill="#999999"/>
<path fill-rule="evenodd" clip-rule="evenodd" d="M41.7358 5.92856H34.4246V15.2803C34.4246 15.7846 34.8306 16.1932 35.3375 16.1932H41.7358V14.3803H36.2944V7.74667H41.7358V5.92856Z" fill="#999999"/>
<path fill-rule="evenodd" clip-rule="evenodd" d="M20.083 5.92856V12.4147L15.2054 5.92856H12.8235V16.188H14.6934V8.38546C16.9046 11.313 20.3054 15.8078 20.3235 15.8363C20.5796 16.1699 21.0062 16.2242 21.2183 16.1751C21.7537 16.051 21.9528 15.6268 21.9528 15.2828V5.92856H20.0804H20.083Z" fill="#999999"/>
<path fill-rule="evenodd" clip-rule="evenodd" d="M5.19744 6.48201L0.400024 16.1932H2.48968L6.10261 8.90529L9.71294 16.1932H11.7845L7.02589 6.51563C6.84744 6.15615 6.48537 5.92856 6.08451 5.92856C5.70951 5.92856 5.36295 6.14321 5.19485 6.48201" fill="#999999"/>
<path fill-rule="evenodd" clip-rule="evenodd" d="M7.79853 14.7395H6.56234C6.56234 14.7395 6.53907 14.7292 6.54424 14.7188L6.78476 12.0809C6.78476 12.0602 6.76148 12.0499 6.74855 12.0654L4.08735 15.5438C4.07959 15.5568 4.08735 15.5775 4.10545 15.5775H5.33907C5.352 15.5775 5.35717 15.5878 5.35717 15.5981L5.11666 18.2361C5.11666 18.2542 5.14252 18.2646 5.15287 18.249L7.8141 14.768C7.8141 14.768 7.8141 14.7369 7.79853 14.7369" fill="#999999"/>
<path fill-rule="evenodd" clip-rule="evenodd" d="M105.331 5.93881H103.112L100.957 8.91554L102.065 10.4492L105.331 5.93881Z" fill="#999999"/>
<path fill-rule="evenodd" clip-rule="evenodd" d="M101.788 11.3025L100.467 9.47663L97.9081 5.94129H95.6923L99.4006 11.0671L95.6923 16.193H97.9081L100.51 12.5982L103.112 16.1956H105.331L101.788 11.2999V11.3025Z" fill="#999999"/>
<path fill-rule="evenodd" clip-rule="evenodd" d="M84.6223 5.93881H82.7526V15.2724C82.7526 15.7742 83.1581 16.1828 83.6679 16.1828H90.0787V14.3698H84.6245V5.93881H84.6223Z" fill="#999999"/>
<path fill-rule="evenodd" clip-rule="evenodd" d="M91.9499 16.1828H93.8196V14.3698V5.93881H91.9499V16.1828Z" fill="#999999"/>
<path fill-rule="evenodd" clip-rule="evenodd" d="M75.6488 5.82743C75.2991 5.82743 74.9551 5.86105 74.6271 5.9283L75.0978 7.74381C75.2759 7.71537 75.4598 7.69985 75.6488 7.69985C75.8762 7.69985 76.1014 7.72312 76.3158 7.76709L75.995 5.84037C75.8813 5.83261 75.7647 5.83003 75.6459 5.83003" fill="#999999"/>
<path fill-rule="evenodd" clip-rule="evenodd" d="M79.5794 7.60702L78.2419 8.9234C78.5005 9.23633 78.7025 9.59581 78.8343 9.98892L80.3419 8.75012C80.1377 8.33633 79.8814 7.95098 79.5794 7.60702Z" fill="#999999"/>
<path fill-rule="evenodd" clip-rule="evenodd" d="M80.7765 10.0352L78.961 10.5059C78.9893 10.6843 79.0052 10.8679 79.0052 11.0567C79.0052 11.2843 78.982 11.5093 78.9379 11.724L80.8648 11.4033C80.872 11.2895 80.8749 11.1731 80.8749 11.0542C80.8749 10.705 80.8416 10.361 80.7743 10.0326" fill="#999999"/>
<path fill-rule="evenodd" clip-rule="evenodd" d="M77.3266 6.10182L76.8277 7.90958C77.2158 8.0544 77.567 8.26906 77.8726 8.53803L78.5577 6.70958C78.1804 6.45613 77.7662 6.24923 77.3266 6.10182Z" fill="#999999"/>
<path fill-rule="evenodd" clip-rule="evenodd" d="M78.1645 13.2834C78.1181 13.3352 78.0718 13.3843 78.0225 13.4335C77.415 14.0412 76.5743 14.4188 75.6459 14.4188C73.7892 14.4188 72.2864 12.9136 72.2864 11.0593C72.2864 10.1309 72.6613 9.29293 73.2715 8.68259C73.349 8.605 73.4293 8.53259 73.5119 8.46276C73.8254 8.20414 74.1846 8.00242 74.5778 7.87052L73.3388 6.36276C72.9253 6.56707 72.5398 6.82311 72.1958 7.12569C72.1105 7.20069 72.0277 7.27828 71.9475 7.35845C71.001 8.305 70.4166 9.61104 70.4166 11.0567C70.4166 13.9455 72.7571 16.2861 75.6459 16.2861C77.0913 16.2861 78.3976 15.7015 79.3441 14.755C79.5845 14.5145 79.8018 14.2507 79.9908 13.9688C80.2442 13.5912 80.4513 13.1774 80.6012 12.7378L78.793 12.2386C78.6482 12.6266 78.4339 12.9783 78.1645 13.2834Z" fill="#999999"/>
<path fill-rule="evenodd" clip-rule="evenodd" d="M65.7484 10.1596H65.6656H63.0225C62.182 10.1596 61.6259 9.6967 61.6259 8.91567C61.6259 8.48894 61.957 7.75705 63.0225 7.75705L67.057 7.78032L68.4536 5.94412H63.0122C61.3803 5.94412 59.9449 7.13119 59.8234 8.90532C59.7613 9.80274 60.0303 10.5553 60.6536 11.2536C61.0673 11.7191 61.6674 11.9777 62.2906 11.9777H65.6682H65.7406C66.8035 11.9777 67.1371 12.7096 67.1371 13.1364C67.1371 13.9174 66.5838 14.3803 65.7406 14.3803H61.2044L59.8156 16.1958H66.4725C67.0958 16.1958 67.6932 15.9372 68.1096 15.4743C68.7329 14.776 69.0019 14.026 68.9397 13.126C68.8182 11.3519 67.3854 10.1648 65.751 10.1648" fill="#999999"/>
</g>
<defs>
<clipPath id="clip0_300_3089">
<rect width="105" height="21" fill="white" transform="translate(0.400024 0.5)"/>
</clipPath>
</defs>
</svg>
