<svg width="86" height="28" viewBox="0 0 86 28" fill="none" xmlns="http://www.w3.org/2000/svg">
<mask id="mask0_623_6" style="mask-type:luminance" maskUnits="userSpaceOnUse" x="0" y="0" width="86" height="28">
<path d="M85.4 0H0V28H85.4V0Z" fill="white"/>
</mask>
<g mask="url(#mask0_623_6)">
<path d="M3.84474 8.40014L9.25981 16.5726H10.1246V8.40014H12.9756V20.3H9.11442L3.71754 12.1458H2.85293V20.3H0V8.40014H3.84474ZM27.266 8.40014V10.8048H18.6792V13.0383H25.3009V15.2608H18.6792V17.8952H27.266V20.2999H15.8262V8.4L27.266 8.40014ZM37.6569 8.40014C38.222 8.40014 38.7374 8.45012 39.2029 8.55008C39.6684 8.65004 40.0673 8.81419 40.3997 9.04183C40.7322 9.26961 40.99 9.57264 41.1728 9.95022C41.3557 10.3281 41.4471 10.7948 41.4471 11.3502C41.4471 11.9503 41.3112 12.4502 41.0398 12.8502C40.7681 13.2501 40.3664 13.578 39.8346 13.8335C40.5661 14.0445 41.1118 14.4143 41.4721 14.9418C41.8321 15.4696 42.0123 16.1059 42.0123 16.85C42.0123 17.4501 41.8959 17.9696 41.6632 18.4083C41.4304 18.8474 41.1172 19.2057 40.7238 19.4832C40.3302 19.7611 39.8815 19.9665 39.3772 20.0997C38.8699 20.2335 38.3474 20.3008 37.8228 20.2999H30.1166V8.4L37.6569 8.40014ZM37.3244 13.2168C37.7899 13.2168 38.1722 13.1059 38.4714 12.8834C38.7708 12.6612 38.9203 12.3001 38.9203 11.8002C38.9203 11.5226 38.8704 11.2947 38.7708 11.1169C38.671 10.9392 38.538 10.8002 38.3718 10.7002C38.2055 10.6002 38.0143 10.5309 37.7983 10.4919C37.576 10.4526 37.3507 10.4331 37.1251 10.4336H32.97V13.2168H37.3244ZM37.4742 18.2667C37.7289 18.2667 37.9728 18.2416 38.2055 18.1917C38.4383 18.1417 38.6432 18.0585 38.8207 17.9416C38.9978 17.8249 39.1392 17.6667 39.2447 17.4666C39.3499 17.2667 39.4026 17.0111 39.4026 16.6999C39.4026 16.089 39.2307 15.6528 38.8872 15.3915C38.5437 15.1306 38.0893 14.9999 37.5241 14.9999H32.9702V18.2666L37.4742 18.2667ZM54.8743 19.0157C53.8504 19.8719 52.4346 20.3 50.6272 20.3C48.7943 20.3 47.3755 19.875 46.3709 19.0247C45.366 18.1748 44.8636 16.8631 44.8636 15.0898V8.40014H47.7165V15.0898C47.7165 15.4422 47.748 15.7884 47.8113 16.1283C47.8745 16.4684 48.0072 16.769 48.2094 17.03C48.4115 17.2913 48.6929 17.5037 49.0531 17.6676C49.4134 17.8317 50.0207 17.9136 50.6272 17.9136C51.6889 17.9136 52.5457 17.6859 52.9503 17.2304C53.3546 16.775 53.5572 16.0618 53.5572 15.0898V8.40014H56.4101V15.0898C56.4099 16.8509 55.8981 18.1594 54.8743 19.0157ZM62.1138 17.8954V8.40014H59.2609V20.3H68.7703L69.7618 17.8954H62.1138ZM82.4383 20.3H85.4L80.4244 8.40014H76.6374L71.6121 20.3H74.4828L75.6644 17.4372H81.2833L82.4383 20.3ZM76.5674 15.2489L78.0703 11.6064H78.9306L80.3999 15.2489H76.5674Z" fill="#999999"/>
</g>
</svg>
