<svg width="101" height="28" viewBox="0 0 101 28" fill="none" xmlns="http://www.w3.org/2000/svg">
<g clip-path="url(#clip0_300_3077)">
<g clip-path="url(#clip1_300_3077)">
<path d="M1.65614 17.0248C1.6644 16.9973 1.67944 16.9722 1.6999 16.952C1.71919 16.932 1.74363 16.9177 1.77054 16.9107C1.79745 16.9037 1.82579 16.9042 1.85244 16.9121C1.879 16.9204 1.90293 16.9354 1.92183 16.9557C2.27192 17.3272 3.15089 18.0707 4.68129 18.2206C5.79157 18.3301 7.04001 18.1534 7.10941 17.3894C7.14192 17.039 6.98937 16.7199 6.42986 16.6203C5.97099 16.5351 4.58189 16.3988 3.63289 15.9459C2.50135 15.4045 1.78429 14.48 1.83993 13.3444C1.83993 12.5126 2.51885 10.1942 6.0235 9.84151C8.59479 9.5851 9.98639 10.5763 10.3159 10.8482C10.339 10.8669 10.3565 10.893 10.3671 10.9216C10.3776 10.9509 10.3804 10.9824 10.3752 11.0131C10.2658 11.6471 10.0896 12.7061 10.0089 13.1858C10.0044 13.2128 9.99374 13.2383 9.97764 13.2605C9.96217 13.2822 9.94152 13.2996 9.91765 13.3115C9.89399 13.3231 9.86774 13.3284 9.84142 13.3269C9.81517 13.3253 9.78969 13.3171 9.76757 13.3028C9.25433 12.9854 7.7727 12.2226 5.73093 12.474C5.51837 12.5001 4.54563 12.6097 4.52562 13.3575C4.51749 13.6356 4.70317 14.0152 5.46586 14.1875C5.75781 14.2535 6.74119 14.3816 6.95687 14.4103C8.441 14.6131 9.93011 15.3025 9.93011 17.1573C9.93011 19.2168 8.13594 20.5931 6.02663 20.9203C3.06337 21.3789 1.38669 19.7058 1.0441 19.3238C1.02409 19.3006 1.01027 19.2727 1.00393 19.2429C0.997591 19.213 0.998938 19.182 1.00784 19.1527L1.65614 17.0248ZM84.9538 10.7742L85.0301 10.295C85.0336 10.2711 85.0322 10.2467 85.0252 10.2235C85.0189 10.2 85.007 10.1783 84.9909 10.1601C84.9748 10.1417 84.9545 10.1271 84.9321 10.1171C84.9097 10.1071 84.8859 10.102 84.8614 10.1022H82.3904C82.3505 10.1016 82.3113 10.1151 82.2805 10.1404C82.2497 10.1657 82.2287 10.2011 82.2217 10.2403L80.3954 20.3703L83.2255 20.3772L84.223 14.8807C84.461 13.5815 85.4774 12.5207 87.0321 12.5207C87.4647 12.5348 87.8889 12.6449 88.2732 12.843C88.3117 12.8638 88.3572 12.8691 88.3992 12.8575C88.4412 12.8458 88.4776 12.8183 88.4993 12.7807L89.7502 10.6715C89.7726 10.6337 89.7789 10.5887 89.7677 10.5462C89.7572 10.5037 89.7299 10.4671 89.6921 10.4444C88.7583 9.88687 86.8445 9.18876 84.9538 10.7742ZM77.2643 15.4207C77.2629 16.1612 77.0004 16.8705 76.5328 17.3944C76.0652 17.9183 75.431 18.2132 74.7702 18.2138C74.1087 18.2132 73.4738 17.9189 73.0062 17.395C72.5386 16.8711 72.2754 16.1612 72.2747 15.4207C72.2754 14.6803 72.5386 13.9698 73.0062 13.4459C73.4738 12.9226 74.1087 12.6277 74.7702 12.6271C75.431 12.6283 76.0652 12.9226 76.5328 13.4465C77.0004 13.9698 77.2629 14.6797 77.2643 15.4207ZM74.7702 9.79979C73.4437 9.80105 72.1732 10.3915 71.2352 11.4418C70.2975 12.4914 69.7698 13.9144 69.768 15.399C69.7698 16.8841 70.2968 18.3077 71.2345 19.3574C72.1725 20.407 73.4437 20.9975 74.7702 20.9994C76.0953 20.9975 77.3665 20.407 78.3038 19.3567C79.2418 18.3071 79.7689 16.8841 79.7703 15.3996C79.7689 13.9144 79.2411 12.4914 78.3038 11.4418C77.3665 10.3921 76.0953 9.80168 74.7702 9.79979ZM69.0672 11.0535C68.0207 10.1563 66.6878 9.71334 65.3412 9.81407C64.0727 9.91053 62.878 10.4798 61.9741 11.4206C61.0694 12.3607 60.5137 13.6107 60.4081 14.9435C60.3485 15.7131 60.4413 16.4868 60.6812 17.2208C60.9173 17.9464 61.2979 18.6172 61.8003 19.1932C62.2923 19.7567 62.8978 20.211 63.5776 20.5265C64.247 20.8366 64.9762 20.9979 65.7144 20.9994C66.9435 21.0013 68.135 20.5533 69.084 19.7326C69.1139 19.7058 69.1337 19.6698 69.1404 19.6304C69.1472 19.591 69.1402 19.5504 69.1209 19.5154L67.9206 17.3489C67.9085 17.3259 67.8909 17.3062 67.8693 17.2915C67.8477 17.2768 67.8228 17.2677 67.7968 17.2649C67.771 17.2623 67.745 17.266 67.721 17.2758C67.697 17.2855 67.6758 17.3011 67.6593 17.3209C67.3971 17.6204 67.0703 17.8571 66.7034 18.0134C66.342 18.1665 65.9496 18.2335 65.5575 18.2088C64.9077 18.1629 64.2988 17.8763 63.8508 17.4056C63.3885 16.9198 63.1108 16.2887 63.0656 15.6211C63.0399 15.2393 63.0892 14.8561 63.2107 14.493C63.3304 14.1345 63.5211 13.8034 63.7715 13.5193C64.0196 13.2393 64.3203 13.0153 64.6548 12.8617C64.9825 12.7109 65.3389 12.6318 65.6999 12.6297C66.061 12.6275 66.4183 12.7023 66.7478 12.8492C67.0747 12.9948 67.3705 13.2076 67.6174 13.4751C67.6345 13.4943 67.656 13.5092 67.6799 13.5187C67.7035 13.5281 67.729 13.5315 67.7542 13.5286C67.7794 13.5258 67.8035 13.5169 67.8243 13.5025C67.8457 13.488 67.8634 13.4688 67.8763 13.4465L69.1028 11.275C69.1234 11.2393 69.1312 11.1975 69.1247 11.1568C69.1182 11.1168 69.0978 11.0802 69.0672 11.0535ZM19.592 15.4207C19.5941 16.1531 19.3161 16.8587 18.8143 17.3944C18.5747 17.6508 18.285 17.8558 17.9629 17.9967C17.6408 18.1376 17.2931 18.2115 16.9413 18.2138C16.5895 18.2115 16.2418 18.1376 15.9197 17.9967C15.5977 17.8558 15.3079 17.6508 15.0683 17.3944C14.5668 16.8586 14.289 16.153 14.2912 15.4207C14.2887 14.6881 14.5666 13.9819 15.0683 13.4459C15.3079 13.1895 15.5977 12.9845 15.9197 12.8436C16.2419 12.7027 16.5895 12.6288 16.9413 12.6265C17.2932 12.6287 17.641 12.7025 17.9632 12.8435C18.2854 12.9844 18.5752 13.1894 18.8149 13.4459C19.3165 13.9818 19.5944 14.6883 19.592 15.4207ZM16.9413 9.79979C15.5328 9.80168 14.1825 10.3921 13.1866 11.4418C12.1907 12.4914 11.6299 13.9144 11.6281 15.399C11.6299 16.8841 12.1907 18.3071 13.186 19.3567C14.1825 20.407 15.5328 20.9975 16.9413 20.9994C18.3504 20.9975 19.7014 20.407 20.6973 19.3574C21.6938 18.3077 22.2539 16.8841 22.2558 15.399C22.2539 13.9144 21.6931 12.4914 20.6973 11.4418C19.7008 10.3909 18.3504 9.80168 16.9413 9.79979ZM34.6045 10.422H32.3127C32.2746 10.4217 32.2378 10.4357 32.2096 10.4612C32.1801 10.4877 32.1607 10.5235 32.1546 10.5626L31.3069 15.7903C30.9762 17.7689 29.5639 18.2356 28.7393 18.2356C27.2833 18.2356 25.8036 17.3408 26.2224 14.7512C26.3943 13.6835 26.782 11.3192 26.8964 10.6205C26.9002 10.596 26.8991 10.5711 26.8929 10.5471C26.8868 10.5232 26.8759 10.5007 26.8607 10.4811C26.8458 10.4627 26.8271 10.4478 26.8057 10.4376C26.7848 10.4271 26.7616 10.4218 26.7382 10.422H24.4464C24.4083 10.4215 24.3715 10.4352 24.3432 10.4606C24.3138 10.4871 24.2943 10.5229 24.2882 10.562L23.6005 14.7444C22.9472 18.6705 25.7923 20.9994 28.7381 20.9994C31.105 20.9994 33.3368 19.3742 33.8663 16.1562C34.0907 14.7992 34.6227 11.4648 34.7577 10.6198C34.7614 10.5959 34.7602 10.5715 34.7543 10.5479C34.7485 10.5245 34.7379 10.5024 34.7233 10.483C34.709 10.4649 34.6909 10.45 34.6702 10.4394C34.6502 10.4288 34.6273 10.4228 34.6045 10.422ZM34.9253 20.3772H37.3415C37.3813 20.3778 37.4199 20.3641 37.4503 20.3386C37.4811 20.3127 37.5016 20.2768 37.5084 20.2372L38.4174 15.0032C38.7632 13.0265 40.2517 12.5599 41.1219 12.5599C42.656 12.5599 44.2164 13.454 43.7726 16.0411C43.5913 17.1075 43.1768 19.4793 43.0542 20.1787C43.0501 20.2033 43.0513 20.2284 43.0578 20.2525C43.0643 20.2765 43.0758 20.2989 43.0918 20.3181C43.1076 20.3368 43.1275 20.3518 43.1498 20.362C43.1722 20.3722 43.1966 20.3774 43.2212 20.3772H45.6374C45.6772 20.3778 45.7158 20.3641 45.7462 20.3386C45.777 20.3127 45.7976 20.2768 45.8043 20.2372L46.537 16.0473C47.2272 12.1262 44.2277 9.79979 41.1219 9.79979C38.6263 9.79979 36.2738 11.4237 35.7155 14.638C35.4786 15.9938 34.9065 19.3332 34.7615 20.1799C34.7556 20.2162 34.7616 20.2534 34.7784 20.2861C34.7953 20.3188 34.8223 20.3452 34.8553 20.3616C34.8772 20.3719 34.9011 20.3772 34.9253 20.3772ZM56.9716 9.2834L56.5759 11.4941C55.5651 10.6396 54.2657 10.1997 52.9411 10.2633C51.621 10.3321 50.3748 10.8914 49.449 11.8306C48.5137 12.7794 47.9603 14.0366 47.8936 15.3641C47.8591 16.0901 47.9705 16.8157 48.2212 17.4982C48.4706 18.1782 48.855 18.8011 49.3515 19.33C49.8447 19.8556 50.4406 20.2755 51.1026 20.5638C51.7627 20.8513 52.4729 20.9994 53.1912 21C54.44 20.997 55.6469 20.5517 56.5958 19.7438C57.5536 18.928 58.1961 17.8058 58.4132 16.5699C59.4347 10.6224 59.5103 10.1812 59.7635 8.74888C59.7679 8.72298 59.7661 8.69645 59.7583 8.67139C59.7505 8.64633 59.7369 8.62344 59.7185 8.60454C59.7002 8.58606 59.6777 8.5722 59.6529 8.56422C59.6281 8.55617 59.6017 8.55421 59.576 8.55848C58.732 8.70289 57.898 8.90323 57.0797 9.15705C57.0517 9.1665 57.0268 9.1833 57.0078 9.20584C56.9887 9.22831 56.9762 9.25554 56.9716 9.28459V9.2834ZM53.1643 18.2773C52.8158 18.2764 52.4709 18.2065 52.1497 18.0715C51.8285 17.9367 51.5376 17.7394 51.2939 17.4914C50.7962 16.9853 50.5176 16.3052 50.5181 15.597C50.5184 14.8889 50.7976 14.2091 51.2958 13.7035C51.5398 13.4557 51.831 13.2587 52.1524 13.1241C52.4737 12.9895 52.8188 12.92 53.1674 12.9195C53.5158 12.9205 53.8604 12.9903 54.1814 13.1251C54.5023 13.26 54.793 13.4569 55.0367 13.7047C55.5344 14.2106 55.8131 14.8904 55.8131 15.5984C55.8131 16.3064 55.5344 16.9862 55.0367 17.492C54.793 17.7397 54.5023 17.9368 54.1814 18.0716C53.8604 18.2064 53.5158 18.2763 53.1674 18.2773H53.1643ZM57.8099 4.86576C59.6233 4.43879 61.4792 4.21548 63.3426 4.2C63.3675 4.2 63.3926 4.20435 63.4157 4.21368C63.4388 4.22302 63.4595 4.23733 63.4757 4.25475C63.4917 4.27153 63.5035 4.29182 63.5101 4.31398C63.5168 4.33615 63.518 4.35956 63.5138 4.3823C63.3982 4.97339 63.2413 5.7841 63.1156 6.43804C63.1077 6.47374 63.0873 6.50545 63.0582 6.52764C63.0272 6.55116 62.9896 6.56425 62.9506 6.56495C61.1063 6.60674 59.2727 6.85489 57.4842 7.30478C57.4563 7.31199 57.4271 7.31269 57.399 7.30688C57.3708 7.301 57.3443 7.28882 57.3217 7.27118C57.3004 7.2541 57.284 7.23177 57.2741 7.2065C57.2648 7.18165 57.2626 7.1547 57.2679 7.12866L57.6868 4.98957C57.6924 4.95984 57.7071 4.93252 57.7286 4.91117C57.7511 4.889 57.7792 4.8733 57.8099 4.86576ZM98.4169 16.6135H100.267C100.56 15.2945 100.365 13.9144 99.7168 12.7275C99.0686 11.5406 98.0109 10.6268 96.739 10.1545C96.0257 9.88932 95.2662 9.77074 94.5053 9.80602C93.1095 9.87693 91.7893 10.4608 90.8009 11.4447C89.8118 12.4286 89.2252 13.7425 89.1545 15.132C89.1181 15.889 89.2371 16.6452 89.5038 17.3551C89.7698 18.065 90.1779 18.7137 90.7036 19.2622C91.2286 19.8106 91.86 20.2474 92.56 20.546C93.26 20.8445 94.0132 20.9988 94.7741 20.9994C95.6638 20.9987 96.5402 20.788 97.3319 20.3847C98.1236 19.9814 98.8082 19.3969 99.329 18.6792C99.3542 18.6427 99.3647 18.5978 99.357 18.5539C99.35 18.5101 99.3262 18.4707 99.2905 18.444L97.6007 17.1872C97.5825 17.1737 97.5615 17.1639 97.5398 17.1585C97.5174 17.1531 97.495 17.152 97.4719 17.1555C97.4495 17.159 97.4285 17.1669 97.4089 17.1787C97.3893 17.1905 97.3725 17.2061 97.3592 17.2245C97.033 17.6841 96.5885 18.0482 96.0726 18.279C95.5567 18.5098 94.9883 18.5988 94.4262 18.5368C93.8641 18.4747 93.3286 18.2638 92.8764 17.9262C92.4235 17.5885 92.0707 17.1363 91.853 16.6166H98.4169V16.6135ZM94.7741 12.2463C95.3971 12.2464 96.0054 12.4286 96.5248 12.7702C97.0442 13.1118 97.4516 13.5977 97.6959 14.1676H91.8572C92.1015 13.5984 92.5075 13.113 93.0262 12.7714C93.5449 12.4299 94.1525 12.2473 94.7741 12.2463Z" fill="#999999"/>
</g>
</g>
<defs>
<clipPath id="clip0_300_3077">
<rect width="99.4" height="28" fill="white" transform="translate(0.799988)"/>
</clipPath>
<clipPath id="clip1_300_3077">
<rect width="99.4" height="28" fill="white" transform="translate(1)"/>
</clipPath>
</defs>
</svg>
