<svg width="59" height="15" viewBox="0 0 59 15" fill="none" xmlns="http://www.w3.org/2000/svg">
<path d="M55.9794 6.88122C56.6594 6.35991 57.1432 5.81254 57.4309 5.23911C57.7447 4.66567 57.8754 4.04011 57.8231 3.36241C57.7185 2.34587 57.3262 1.53785 56.6463 0.938349C55.9663 0.312783 55.1425 0 54.1749 0H48.8398V11.6512H50.9581V6.88122H53.4687L56.4894 11.6512H59L55.9794 6.88122ZM55.7832 3.36241C55.7571 3.83159 55.6002 4.1965 55.3125 4.45715C55.051 4.69174 54.6718 4.80903 54.1749 4.80903H50.9581V2.07218H54.1749C54.7764 2.09825 55.1948 2.25464 55.4302 2.54136C55.6656 2.82808 55.7832 3.10176 55.7832 3.36241ZM32.6383 7.3113L35.3843 11.6512H37.8949L34.0113 5.4737L32.6383 7.3113ZM37.1496 0H34.4428L28.8723 7.35039V0H26.7148V10.6346C26.7148 10.8431 26.7801 11.0517 26.9109 11.2602C27.0417 11.4426 27.264 11.573 27.5778 11.6512C27.7086 11.6772 27.8655 11.6642 28.0485 11.6121C28.2578 11.5599 28.4408 11.4426 28.5977 11.2602L37.1496 0ZM41.857 6.84212L46.0545 6.88122V4.80903H41.857V6.84212ZM47.1529 0H38.7972V10.6346C38.8234 10.9213 38.928 11.1689 39.111 11.3775C39.3203 11.5599 39.5687 11.6512 39.8564 11.6512H47.1529V9.61807H40.9548V2.07218H47.1529V0ZM22.4388 0V7.35039L16.9076 0H14.1616V11.6512H16.3192V2.77595L22.7134 11.2602C22.8703 11.4426 23.0403 11.5599 23.2234 11.6121C23.4326 11.6642 23.6026 11.6772 23.7334 11.6512C24.0472 11.573 24.2695 11.4426 24.4003 11.2602C24.531 11.0517 24.5964 10.8431 24.5964 10.6346V0H22.4388ZM5.49202 0.625566L0 11.6512H2.39295L6.51197 3.36241L10.631 11.6512H12.9847L7.57114 0.664663C7.33577 0.247619 6.98271 0.0390969 6.51197 0.0390969C6.04122 0.0390969 5.70124 0.234587 5.49202 0.625566ZM8.43418 10.009H7.02194C7.02194 10.009 7.02194 9.99601 7.02194 9.96995L7.29654 6.99851C7.27039 6.97245 7.25731 6.95941 7.25731 6.95941L4.19747 10.9474H4.2367H5.64894C5.64894 10.9735 5.64894 10.9865 5.64894 10.9865L5.37434 13.997C5.37434 14.0231 5.38741 14.0231 5.41356 13.997L8.4734 10.0481V10.009H8.43418Z" fill="#999999"/>
</svg>
