<svg width="44" height="28" viewBox="0 0 44 28" fill="none" xmlns="http://www.w3.org/2000/svg">
<g clip-path="url(#clip0_300_3079)">
<g clip-path="url(#clip1_300_3079)">
<path d="M21.998 8.7346C21.998 8.31488 22.3516 7.9884 22.7988 7.9884C23.2474 7.9884 23.5773 8.31495 23.5773 8.7346V15.1486C23.5773 17.8317 21.9507 19.8143 18.9567 19.8143C15.9642 19.8143 14.359 17.8317 14.359 15.1486V8.7346C14.359 8.31488 14.6896 7.9884 15.1377 7.9884C15.563 7.9884 15.9156 8.31495 15.9156 8.7346V15.1958C15.9156 17.0619 17.0013 18.3917 18.9567 18.3917C20.9147 18.3917 21.998 17.0619 21.998 15.1958V8.7346ZM26.5192 8.58606C26.5731 5.33273 28.2689 3.44277 30.9744 3.50132C31.5639 3.51359 31.9863 3.57144 32.1752 3.61784C32.6239 3.73435 32.7885 4.03768 32.7885 4.31767C32.7885 4.80819 32.4824 5.01694 32.1046 5.01694C31.7743 5.01694 31.5156 4.9471 31.0206 4.9471C28.9932 4.9471 28.1925 6.13692 28.0984 8.32951H30.7609C31.1861 8.32951 31.4683 8.6331 31.4683 9.05331C31.4683 9.47275 31.1861 9.77585 30.7609 9.77585H28.0984V19.0828C28.0984 19.5269 27.7678 19.8295 27.3204 19.8295C26.8493 19.8295 26.5192 19.5268 26.5192 19.0828V8.58606ZM37.7094 19.8284L33.3881 9.1826C33.3156 9.04337 33.2885 8.85738 33.2885 8.74055C33.2843 8.34414 33.658 8.01402 34.1306 8.00933C34.483 8.00492 34.6973 8.19035 34.8195 8.49282L38.4224 17.9789L41.9836 8.42478C42.0992 8.14429 42.2853 7.93254 42.6143 7.92981C43.0392 7.92582 43.3957 8.20099 43.4 8.64472C43.4006 8.78514 43.3343 8.99535 43.2863 9.08985L38.6626 21.0561C37.697 23.4672 36.8583 24.4781 34.6186 24.4999C33.9361 24.5059 33.651 24.2752 33.6452 23.809C33.6403 23.3661 33.8746 23.0834 34.4406 23.0784C36.3019 23.0602 36.7885 22.1467 37.2951 20.905L37.7094 19.8284ZM12.5243 13.9629C12.5157 13.5542 12.1947 13.2407 11.7579 13.2407C11.3214 13.2407 10.9771 13.5543 10.9689 13.9629H10.9631V14.0234C10.9631 14.6626 10.8388 15.2723 10.5912 15.8373C10.3426 16.4039 10.0024 16.9025 9.58111 17.3181C9.15985 17.7353 8.65788 18.0717 8.08332 18.3175C7.51415 18.5621 6.89668 18.6858 6.25175 18.6858C6.14223 18.6858 6.04836 18.6836 5.96129 18.6761C5.87019 18.6687 5.77253 18.6571 5.66301 18.6416C5.09283 18.5665 4.5514 18.3942 4.05671 18.1264C3.55822 17.8577 3.11906 17.5139 2.75188 17.1053C2.38328 16.6955 2.0899 16.2235 1.8788 15.702C1.66896 15.1831 1.56265 14.619 1.56265 14.0234C1.56265 13.3839 1.68823 12.7781 1.93459 12.2219C2.18473 11.6617 2.52431 11.1622 2.94576 10.7378C3.36596 10.3146 3.86597 9.97416 4.43126 9.72825C4.99237 9.48304 5.60453 9.35991 6.25172 9.35991C6.89665 9.35991 7.51009 9.47975 8.07331 9.71789C8.55932 9.92215 9.00354 10.2036 9.39624 10.5529L6.4829 13.4554L6.47606 13.4618L6.47843 13.4642C6.24015 13.8051 6.31911 14.2551 6.68157 14.5088C7.04291 14.7615 7.5047 14.698 7.75271 14.3671L7.75537 14.3677L11.2968 10.8548C11.4673 10.685 11.4673 10.4111 11.2968 10.2416L10.6838 9.63578C10.1051 9.06388 9.42641 8.61245 8.66775 8.29339C7.90699 7.97475 7.09282 7.81249 6.25172 7.81249C5.40852 7.81249 4.597 7.97468 3.84479 8.29395C3.0956 8.61203 2.41396 9.06311 1.81602 9.63823C1.23817 10.2255 0.785582 10.8998 0.473352 11.6443C0.158204 12.3893 0 13.1902 0 14.0234C0 14.7932 0.142853 15.5408 0.423004 16.2438C0.702436 16.9454 1.09276 17.5794 1.57966 18.1264C2.06627 18.6742 2.64857 19.1345 3.30905 19.4937C3.96948 19.8533 4.70119 20.0863 5.47898 20.1844C5.61094 20.2004 5.73899 20.2131 5.86275 20.221C5.99024 20.2294 6.11932 20.2335 6.25172 20.2335C7.09282 20.2335 7.90699 20.0758 8.66691 19.7652C9.42641 19.4548 10.1063 18.9973 10.6838 18.4097C11.2788 17.8226 11.7385 17.1467 12.0535 16.4022C12.3671 15.6572 12.5273 14.8564 12.5273 14.0234V13.9629H12.5243Z" fill="#999999"/>
</g>
</g>
<defs>
<clipPath id="clip0_300_3079">
<rect width="43.4" height="28" fill="white" transform="translate(0.200012)"/>
</clipPath>
<clipPath id="clip1_300_3079">
<rect width="43.4" height="28" fill="white"/>
</clipPath>
</defs>
</svg>
