<svg xmlns="http://www.w3.org/2000/svg" width="49" height="48" viewBox="0 0 49 48" fill="none">
  <path d="M14.7978 28.463H12.7419C12.1833 28.463 11.6768 28.1562 11.4176 27.664C11.1598 27.1734 11.1971 26.5863 11.5144 26.1327L18.1512 16.604C18.3851 16.2675 18.8484 16.183 19.1881 16.4172C19.5263 16.6499 19.6112 17.1125 19.3758 17.449L12.739 26.9807H14.7978L27.7393 16.7671C28.0626 16.5121 28.5303 16.5669 28.7866 16.8871C29.0428 17.2073 28.9892 17.6743 28.6659 17.9292L15.7423 28.1384C15.4622 28.3519 15.139 28.463 14.7978 28.463Z" fill="#182E6F"/>
  <path d="M28.5229 11.515C28.368 11.515 28.213 11.4676 28.0804 11.3697L17.0786 3.26704L14.9706 3.26259L18.0321 7.73049C18.2645 8.06847 18.1766 8.52949 17.8369 8.76074C17.4987 8.99051 17.0354 8.90601 16.8015 8.56655L13.7401 4.10458C13.4287 3.63763 13.4004 3.04913 13.6611 2.56143C13.9203 2.07965 14.4224 1.78021 14.9706 1.78021H17.0712C17.387 1.78021 17.7132 1.88843 17.9665 2.07669L28.9654 10.1779C29.2961 10.421 29.3661 10.8865 29.1203 11.2141C28.9758 11.4112 28.7508 11.515 28.5229 11.515Z" fill="#182E6F"/>
  <path d="M43.8838 18.0864H28.2026C27.7914 18.0864 27.4577 17.7543 27.4577 17.3452C27.4577 16.9361 27.7914 16.604 28.2026 16.604H43.8838C44.5601 16.604 45.0905 16.0793 45.0905 15.4107C45.0905 15.006 44.8893 14.6339 44.5392 14.3923L41.7981 12.1673C40.9921 11.6366 39.9836 11.3327 38.9393 11.3327L9.94718 12.1109C8.66749 12.1109 7.50399 11.4883 6.81423 10.4477L4.93268 7.71715L3.38482 7.70974L4.98333 12.1302C5.94124 14.7644 8.65259 16.604 11.577 16.604H14.622C15.0332 16.604 15.3669 16.9361 15.3669 17.3452C15.3669 17.7543 15.0347 18.0864 14.622 18.0864H11.577C8.03732 18.0864 4.74944 15.8436 3.58296 12.6342L1.9785 8.22116C1.81164 7.76458 1.87868 7.25465 2.15727 6.85885C2.43585 6.46305 2.89469 6.22736 3.38482 6.22736H4.9148C5.43174 6.22736 5.90101 6.47788 6.17215 6.89739L8.04924 9.62052C8.47084 10.255 9.16953 10.6285 9.92633 10.6285L38.9184 9.85178C40.2785 9.85178 41.5746 10.2416 42.683 10.9769L45.4361 13.2094C46.1348 13.6897 46.5802 14.5257 46.5802 15.4107C46.5802 16.8872 45.3705 18.0864 43.8838 18.0864Z" fill="#182E6F"/>
  <path d="M10.0708 3.26259H4.12821C3.71704 3.26259 3.38333 2.93054 3.38333 2.5214C3.38333 2.11227 3.71704 1.78021 4.12821 1.78021H10.0708C10.482 1.78021 10.8157 2.11227 10.8157 2.5214C10.8157 2.93054 10.4835 3.26259 10.0708 3.26259Z" fill="#182E6F"/>
  <path d="M10.0634 25.4983H5.61795C5.20678 25.4983 4.87308 25.1663 4.87308 24.7571C4.87308 24.348 5.20678 24.0159 5.61795 24.0159H10.0634C10.4745 24.0159 10.8083 24.348 10.8083 24.7571C10.8083 25.1663 10.4745 25.4983 10.0634 25.4983Z" fill="#182E6F"/>
  <path d="M8.57364 28.463H2.63846C2.22729 28.463 1.89359 28.131 1.89359 27.7218C1.89359 27.3127 2.22729 26.9807 2.63846 26.9807H8.57364C8.98481 26.9807 9.31851 27.3127 9.31851 27.7218C9.31851 28.131 8.98481 28.463 8.57364 28.463Z" fill="#182E6F"/>
  <path d="M40.4618 14.5094C40.061 14.5094 39.7303 14.1922 39.7169 13.7904C39.705 13.3813 40.0283 13.0404 40.4394 13.027L44.2621 12.9158C44.6346 12.9188 45.016 13.2256 45.0294 13.6348C45.0413 14.0439 44.718 14.3849 44.3068 14.3982L40.4841 14.5094C40.4767 14.5094 40.4707 14.5094 40.4618 14.5094Z" fill="#182E6F"/>
  <path d="M33.9233 46.2516H22.0053C21.5941 46.2516 21.2604 45.9196 21.2604 45.5105V33.6514C21.2604 33.2423 21.5941 32.9102 22.0053 32.9102H33.9233C34.3344 32.9102 34.6681 33.2423 34.6681 33.6514V45.5105C34.6681 45.9196 34.3344 46.2516 33.9233 46.2516ZM22.7501 44.7693H33.1784V34.3926H22.7501V44.7693Z" fill="#182E6F"/>
  <path d="M38.3925 34.3926H29.454C29.0428 34.3926 28.7091 34.0605 28.7091 33.6514V24.7571C28.7091 24.348 29.0428 24.0159 29.454 24.0159H38.3925C38.8037 24.0159 39.1374 24.348 39.1374 24.7571V33.6514C39.1374 34.0605 38.8037 34.3926 38.3925 34.3926ZM30.1989 32.9102H37.6477V25.4983H30.1989V32.9102Z" fill="#182E6F"/>
  <path d="M45.8413 46.2516H33.9233C33.5121 46.2516 33.1784 45.9196 33.1784 45.5105V33.6514C33.1784 33.2423 33.5121 32.9102 33.9233 32.9102H45.8413C46.2524 32.9102 46.5861 33.2423 46.5861 33.6514V45.5105C46.5861 45.9196 46.2524 46.2516 45.8413 46.2516ZM34.6681 44.7693H45.0964V34.3926H34.6681V44.7693Z" fill="#182E6F"/>
  <path d="M2.63845 46.2516H2.48947C2.0783 46.2516 1.7446 45.9196 1.7446 45.5104C1.7446 45.1013 2.0783 44.7692 2.48947 44.7692H2.63845C3.04962 44.7692 3.38333 45.1013 3.38333 45.5104C3.38333 45.9196 3.04962 46.2516 2.63845 46.2516Z" fill="#182E6F"/>
  <path d="M24.9847 46.2516H5.61795C5.20678 46.2516 4.87308 45.9196 4.87308 45.5104C4.87308 45.1013 5.20678 44.7692 5.61795 44.7692H24.9847C25.3959 44.7692 25.7296 45.1013 25.7296 45.5104C25.7296 45.9196 25.3959 46.2516 24.9847 46.2516Z" fill="#182E6F"/>
  <path d="M27.9642 37.3574C27.5531 37.3574 27.2194 37.0253 27.2194 36.6162V33.6514C27.2194 33.2423 27.5531 32.9102 27.9642 32.9102C28.3754 32.9102 28.7091 33.2423 28.7091 33.6514V36.6162C28.7091 37.0253 28.3754 37.3574 27.9642 37.3574Z" fill="#182E6F"/>
  <path d="M33.9233 28.4631C33.5121 28.4631 33.1784 28.131 33.1784 27.7219V24.7571C33.1784 24.348 33.5121 24.0159 33.9233 24.0159C34.3344 24.0159 34.6681 24.348 34.6681 24.7571V27.7219C34.6681 28.131 34.3344 28.4631 33.9233 28.4631Z" fill="#182E6F"/>
  <path d="M39.8823 37.3574C39.4711 37.3574 39.1374 37.0253 39.1374 36.6162V33.6514C39.1374 33.2423 39.4711 32.9102 39.8823 32.9102C40.2934 32.9102 40.6271 33.2423 40.6271 33.6514V36.6162C40.6271 37.0253 40.2934 37.3574 39.8823 37.3574Z" fill="#182E6F"/>
</svg>