<svg xmlns="http://www.w3.org/2000/svg" width="56" height="56" viewBox="0 0 56 56" fill="none">
  <g clip-path="url(#clip0_2162_1113)">
    <path d="M51.9056 25.3288L50.4726 19.6129C50.8644 19.5299 51.1584 19.1833 51.1584 18.7681V17.8465C51.1584 15.8455 49.5259 14.2177 47.5195 14.2177H40.9926V12.3167C40.9926 11.3321 40.1894 10.5311 39.202 10.5311H5.93199C4.94462 10.5311 4.14141 11.3321 4.14141 12.3167V27.984C4.14141 28.4611 4.52929 28.848 5.00784 28.848C5.48629 28.848 5.87428 28.4612 5.87428 27.984V12.3167C5.87428 12.285 5.90011 12.2592 5.93199 12.2592H39.2019C39.2338 12.2592 39.2596 12.285 39.2596 12.3167V27.9842C39.2596 28.4614 39.6475 28.8483 40.1261 28.8483C40.6045 28.8483 40.9925 28.4615 40.9925 27.9842V27.0048H51.2131C51.2139 27.0048 51.2146 27.005 51.2153 27.005C51.2162 27.005 51.2169 27.0049 51.2177 27.0049C52.4754 27.0057 53.5433 27.8289 53.9101 28.9633H51.216C50.7375 28.9633 50.3495 29.3501 50.3495 29.8273V31.6705C50.3495 33.1633 51.5673 34.3777 53.0643 34.3777H54.0462V38.1792H51.7808C51.0366 36.0363 48.9938 34.4928 46.5951 34.4928C44.1964 34.4928 42.1536 36.0363 41.4095 38.1792H40.9923V31.6704C40.9923 31.1932 40.6044 30.8063 40.1259 30.8063C39.6474 30.8063 39.2594 31.1931 39.2594 31.6704V38.179H21.2835C20.5393 36.0361 18.4966 34.4926 16.0979 34.4926C13.6991 34.4926 11.6563 36.0361 10.9122 38.179H5.93199C5.90011 38.179 5.87428 38.1532 5.87428 38.1214V36.2206H9.6287C10.1071 36.2206 10.4951 35.8338 10.4951 35.3566C10.4951 34.8794 10.1073 34.4926 9.6287 34.4926H1.31125C0.832798 34.4926 0.444809 34.8794 0.444809 35.3566C0.444809 35.8338 0.83269 36.2206 1.31125 36.2206H4.14152V38.1214C4.14152 39.1061 4.94473 39.9071 5.9321 39.9071H10.6122C10.612 39.9263 10.6107 39.9453 10.6107 39.9646C10.6107 42.9819 13.0723 45.4366 16.0979 45.4366C19.1234 45.4366 21.585 42.9819 21.585 39.9646C21.585 39.9452 21.5837 39.9263 21.5835 39.9071H41.1094C41.1092 39.9263 41.1079 39.9453 41.1079 39.9646C41.1079 42.9819 43.5696 45.4366 46.5951 45.4366C49.6207 45.4366 52.0823 42.9819 52.0823 39.9646C52.0823 39.9452 52.081 39.9263 52.0808 39.9071H54.9127C55.3911 39.9071 55.7791 39.5203 55.7791 39.043V29.8271C55.7792 27.5517 54.0957 25.6612 51.9056 25.3288ZM40.9926 15.9456H47.5195C48.5705 15.9456 49.4256 16.7984 49.4256 17.8465V17.904H40.9926V15.9456ZM40.9926 25.2768V19.632H48.6913L50.1065 25.2768H40.9926ZM16.0979 43.7088C14.0277 43.7088 12.3434 42.0294 12.3434 39.9648C12.3434 37.9003 14.0277 36.2208 16.0979 36.2208C18.168 36.2208 19.8523 37.9003 19.8523 39.9648C19.8523 42.0294 18.168 43.7088 16.0979 43.7088ZM46.5953 43.7088C44.5252 43.7088 42.8409 42.0294 42.8409 39.9648C42.8409 37.9003 44.5252 36.2208 46.5953 36.2208C48.6655 36.2208 50.3498 37.9003 50.3498 39.9648C50.3498 42.0294 48.6655 43.7088 46.5953 43.7088ZM54.0465 32.6496H53.0645C52.523 32.6496 52.0825 32.2103 52.0825 31.6704V30.6911H54.0463V32.6496H54.0465Z" fill="#182E6F"/>
    <path d="M16.0979 38.1793C15.1105 38.1793 14.3073 38.9802 14.3073 39.9649C14.3073 40.9495 15.1105 41.7505 16.0979 41.7505C17.0852 41.7505 17.8884 40.9495 17.8884 39.9649C17.8884 38.9802 17.0852 38.1793 16.0979 38.1793Z" fill="#182E6F"/>
    <path d="M46.5953 38.1793C45.608 38.1793 44.8047 38.9802 44.8047 39.9649C44.8047 40.9495 45.608 41.7505 46.5953 41.7505C47.5827 41.7505 48.3859 40.9495 48.3859 39.9649C48.3859 38.9802 47.5827 38.1793 46.5953 38.1793Z" fill="#182E6F"/>
    <path d="M36.4295 34.4929H23.4912C23.0127 34.4929 22.6247 34.8797 22.6247 35.357C22.6247 35.8342 23.0126 36.221 23.4912 36.221H36.4295C36.9079 36.221 37.2959 35.8342 37.2959 35.357C37.2959 34.8797 36.908 34.4929 36.4295 34.4929Z" fill="#182E6F"/>
    <path d="M14.2496 30.8065H3.15954C2.6811 30.8065 2.29311 31.1933 2.29311 31.6705C2.29311 32.1477 2.68099 32.5345 3.15954 32.5345H14.2496C14.728 32.5345 15.116 32.1477 15.116 31.6705C15.116 31.1933 14.728 30.8065 14.2496 30.8065Z" fill="#182E6F"/>
    <path d="M30.573 19.0786C30.2347 18.7413 29.686 18.7413 29.3477 19.0787L21.6429 26.7621L17.6347 22.7651C17.2963 22.4276 16.7477 22.4276 16.4094 22.7651C16.0711 23.1025 16.0711 23.6495 16.4094 23.9869L21.0303 28.5949C21.1994 28.7637 21.4212 28.848 21.6429 28.848C21.8645 28.848 22.0864 28.7637 22.2554 28.5949L30.5729 20.3006C30.9113 19.963 30.9113 19.4161 30.573 19.0786Z" fill="#182E6F"/>
  </g>
  <defs>
    <clipPath id="clip0_2162_1113">
      <rect width="55.3344" height="55.1809" fill="white" transform="translate(0.444809 0.393616)"/>
    </clipPath>
  </defs>
</svg>