<svg xmlns="http://www.w3.org/2000/svg" width="53" height="53" viewBox="0 0 53 53" fill="none">
  <g clip-path="url(#clip0_2162_1625)">
    <path d="M51.7203 11.9535C47.1482 1.06313 32.1789 0.562842 26.6267 10.6368C22.3443 2.86681 11.9803 1.11561 5.44531 6.61273C5.12106 6.88533 5.08001 7.36846 5.35347 7.69171C5.62684 8.01496 6.11131 8.0559 6.43546 7.78329C12.6166 2.5841 22.3749 4.76167 25.7442 12.3064L19.1599 20.8278C17.9841 22.3379 18.7646 24.9396 22.239 24.9394C23.4668 24.9393 24.8876 24.61 26.8416 23.1402L32.5674 18.7399L37.0318 23.1732C37.3322 23.4716 37.8185 23.4706 38.1177 23.171C38.4169 22.8713 38.4159 22.3864 38.1154 22.0881L34.7454 18.7415C36.0348 18.7808 37.7498 18.6598 39.5896 18.0507C39.9921 17.9174 40.2101 17.484 40.0765 17.0827C39.9428 16.6813 39.5083 16.464 39.1058 16.5972C36.9377 17.315 34.4547 17.3593 32.8056 16.9783C32.5727 16.9246 32.3396 16.9819 32.1633 17.117C27.1769 20.8613 25.0819 22.8954 23.2802 23.2936C22.0192 23.5722 20.8863 23.3076 20.4606 22.9169C20.1392 22.6219 20.1006 22.1168 20.3746 21.7649C27.7016 12.2786 27.2769 12.8576 27.3385 12.7059C31.4726 2.50957 45.9929 2.27729 50.3037 12.5449C52.2828 17.2588 51.2944 22.4328 47.7287 26.0429L44.917 28.8422L40.4869 24.4429C40.1864 24.1446 39.7002 24.1454 39.401 24.4452C39.1018 24.7448 39.1028 25.2297 39.4033 25.528L45.2517 31.3356C46.0519 32.1336 46.0518 33.432 45.2517 34.2301C44.4516 35.0279 43.15 35.028 42.3497 34.2305L32.1381 24.0311C31.8384 23.7319 31.3523 23.7316 31.0521 24.0303C30.752 24.3292 30.7516 24.8139 31.0513 25.1133L41.2634 35.3131C42.0636 36.1111 42.0636 37.4095 41.2634 38.2075C40.4616 39.007 39.1638 39.0077 38.3613 38.208C38.3613 38.208 38.3613 38.208 38.3612 38.2079L28.1496 28.0086C27.85 27.7093 27.3638 27.7091 27.0636 28.0078C26.7636 28.3067 26.7631 28.7914 27.0628 29.0908L37.2749 39.2905C38.0751 40.0885 38.0752 41.387 37.2749 42.185C36.4746 42.9829 35.1726 42.9829 34.3759 42.1884L33.1781 40.9789C33.0483 38.8177 31.0167 37.2542 28.8865 37.6881C28.9942 35.429 27.0291 33.6966 24.8752 33.9576C25.1477 31.6038 23.1122 29.6683 20.816 29.9909C21.1396 26.7294 17.2247 24.7354 14.7862 27.0298L10.5346 31.0302L5.52947 26.0477C1.03024 21.4925 0.94526 14.8312 4.31531 10.0882C4.56052 9.74309 4.47871 9.26516 4.13266 9.02063C3.7867 8.77621 3.30734 8.85758 3.06214 9.20278C-0.728604 14.5381 -0.599396 22.0251 4.4395 27.1268L9.42966 32.0946C7.28043 34.5713 9.34663 38.4294 12.6388 37.9758C12.4065 40.2725 14.3591 42.1634 16.6384 41.8914C16.351 44.3217 18.5162 46.3032 20.9128 45.8227C20.7513 49.0718 24.6991 50.8427 27.0233 48.5399C31.9987 43.7665 32.3229 43.7737 32.8133 42.7903L33.2862 43.2678C35.6884 45.6636 39.7842 43.6792 39.3836 40.3124C41.7217 40.5881 43.6449 38.6165 43.3719 36.333C46.7383 36.7335 48.7468 32.6554 46.3363 30.2516L46.0052 29.9228C47.4471 28.189 51.6768 25.5699 52.6514 19.708C53.0829 17.1136 52.7609 14.4322 51.7203 11.9535ZM10.6924 35.8809C9.89458 35.0853 9.89212 33.7922 10.6852 32.9936L15.8399 28.1436C16.6526 27.379 17.9079 27.3972 18.698 28.185C19.5165 29.0012 19.4969 30.3273 18.6553 31.1193L13.611 35.8654C12.6742 36.7476 11.43 36.6165 10.6924 35.8809ZM14.7571 39.7887C14.007 39.0406 13.8999 37.7849 14.7676 36.8826C18.9078 32.9853 19.7541 32.1931 19.9045 32.0514C20.7172 31.2868 21.9725 31.305 22.7626 32.0928C23.5793 32.9073 23.5632 34.2335 22.7199 35.027C16.6762 40.7137 17.8065 39.6422 17.6596 39.7887C16.8593 40.5866 15.5574 40.5867 14.7571 39.7887ZM25.9619 47.4331C25.9565 47.4382 25.9511 47.4434 25.9459 47.4486C25.144 48.2483 23.8455 48.2485 23.0434 47.4486C22.2456 46.653 22.2431 45.36 23.0362 44.5613L24.1207 43.5409C24.4292 43.2506 24.4433 42.766 24.1523 42.4584C23.8613 42.1508 23.3753 42.1368 23.0668 42.427L21.6517 43.7646C20.8496 44.5644 19.5514 44.5644 18.7492 43.7646C17.9939 43.0114 17.8971 41.7512 18.7588 40.8595C21.8392 37.9599 21.61 38.1793 23.8967 36.0273C24.7094 35.2626 25.9649 35.2808 26.7549 36.0686C27.5489 36.8606 27.5592 38.1385 26.7702 38.9425L25.5116 40.1267C25.2031 40.4169 25.189 40.9015 25.4801 41.2091C25.7712 41.5168 26.2572 41.5308 26.5655 41.2406C26.576 41.2309 28.1796 39.7221 28.1909 39.7112C29.0036 38.9466 30.2589 38.9648 31.049 39.7527C31.869 40.5704 31.8463 41.8966 31.0063 42.6868L25.9619 47.4331Z" fill="#182E6F"/>
  </g>
  <defs>
    <clipPath id="clip0_2162_1625">
      <rect width="52.4221" height="52.2766" fill="white" transform="translate(0.415527 0.361694)"/>
    </clipPath>
  </defs>
</svg>