<svg xmlns="http://www.w3.org/2000/svg" width="56" height="55" viewBox="0 0 56 55" fill="none">
  <path d="M23.5263 37.6649H42.4687C42.9416 37.6649 43.3238 37.2854 43.3238 36.8178V23.2646C43.3238 22.797 42.9416 22.4175 42.4687 22.4175H13.3949C12.922 22.4175 12.5398 22.797 12.5398 23.2646V27.6033C12.0917 27.5398 11.6393 27.5 11.1835 27.5C9.70163 27.5 8.21716 27.8473 6.89088 28.5038L5.90065 28.9942C4.51793 29.6795 2.97018 30.0412 1.42413 30.0412V31.7354C3.23355 31.7354 5.04639 31.3118 6.66598 30.5096L7.6562 30.0192C10.3447 28.6893 13.7668 29.0493 16.1107 30.9061L21.0387 34.8111C21.6159 35.2694 21.9469 35.9513 21.9469 36.6823C21.9469 37.1575 21.8066 37.6174 21.5398 38.0122L20.854 39.0312L13.8695 34.4189L12.9211 35.8284L20.6172 40.9109C20.7181 40.9778 20.8344 41.0235 20.9575 41.043L35.2584 43.2801C35.9682 43.3903 36.4829 43.9874 36.4829 44.6998C36.4829 45.491 35.8322 46.1356 35.0327 46.1356H21.946C19.8407 46.1356 17.7329 45.6426 15.8499 44.71L10.9415 42.2789C9.32196 41.4767 7.50912 41.0532 5.6997 41.0532H1.42413V42.7473H5.6997C7.24575 42.7473 8.7935 43.109 10.1762 43.7943L15.0846 46.2254C17.2044 47.2749 19.5765 47.8298 21.946 47.8298H35.0327C36.7754 47.8298 38.1932 46.4253 38.1932 44.6998C38.1932 43.1488 37.0713 41.8486 35.5261 41.6063L22.5437 39.5759L22.9627 38.9524C23.2295 38.5569 23.4125 38.1198 23.5263 37.6649ZM38.2795 35.9707C38.6207 34.3139 39.941 33.006 41.6136 32.668V35.9707H38.2795ZM41.6136 27.4144C39.941 27.0765 38.6207 25.7686 38.2795 24.1117H41.6136V27.4144ZM17.5841 24.1117C17.2429 25.7686 15.9226 27.0765 14.25 27.4144V24.1117H17.5841ZM22.1068 33.488L18.8266 30.8883H21.946V29.1941H18.5256V30.6503L17.1796 29.5838C16.7512 29.2441 16.2937 28.9434 15.8157 28.6834C17.6619 27.8702 19.0147 26.1591 19.3123 24.1125H36.5513C36.9285 26.7037 38.9978 28.7537 41.6136 29.1272V30.9569C38.9978 31.3305 36.9285 33.3804 36.5513 35.9716H23.5887C23.4159 34.9991 22.9012 34.1182 22.1068 33.488Z" fill="#182E6F"/>
  <path d="M27.9318 34.2766C30.2894 34.2766 32.2074 32.3766 32.2074 30.0412C32.2074 27.7058 30.2894 25.8058 27.9318 25.8058C25.5743 25.8058 23.6562 27.7058 23.6562 30.0412C23.6562 32.3766 25.5743 34.2766 27.9318 34.2766ZM27.9318 27.5C29.3462 27.5 30.4972 28.6402 30.4972 30.0412C30.4972 31.4423 29.3462 32.5824 27.9318 32.5824C26.5175 32.5824 25.3665 31.4423 25.3665 30.0412C25.3665 28.6402 26.5175 27.5 27.9318 27.5Z" fill="#182E6F"/>
  <path d="M33.9176 29.1942H37.3381V30.8883H33.9176V29.1942Z" fill="#182E6F"/>
  <path d="M33.9176 9.71141H30.4972V8.01726C30.4972 7.72333 30.3432 7.45142 30.091 7.2964C29.8387 7.14139 29.524 7.12784 29.259 7.25913L18.9976 12.3416C18.7086 12.4856 18.5256 12.7787 18.5256 13.0997C18.5256 13.4208 18.7086 13.7138 18.9985 13.8578L29.2598 18.9403C29.5258 19.0707 29.8404 19.0572 30.0918 18.903C30.3432 18.748 30.4972 18.4761 30.4972 18.1822V16.488H33.9176C41.4614 16.488 47.5994 22.5683 47.5994 30.0412C47.5994 30.5088 47.9817 30.8883 48.4545 30.8883H53.5852C54.0581 30.8883 54.4403 30.5088 54.4403 30.0412C54.4403 18.8319 45.2333 9.71141 33.9176 9.71141ZM49.2866 29.1941C48.8411 21.1791 42.1182 14.7939 33.9176 14.7939H29.6421C29.1692 14.7939 28.7869 15.1733 28.7869 15.6409V16.8116L21.2927 13.0997L28.7869 9.38783V10.5585C28.7869 11.0261 29.1692 11.4056 29.6421 11.4056H33.9176C44.0045 11.4056 52.2615 19.3105 52.7113 29.1941H49.2866Z" fill="#182E6F"/>
</svg>