<svg id="Layer_1" viewBox="0 0 512 512" xmlns="http://www.w3.org/2000/svg" data-name="Layer 1"><path d="m501 249h-119.357c-3.866 0-7 3.134-7 7 0 65.42-53.223 118.643-118.643 118.643s-118.643-53.223-118.643-118.643c0-3.866-3.134-7-7-7h-119.357c-3.866 0-7 3.134-7 7v31.233c0 9.017 6.178 16.532 15.023 18.275l30.034 5.921 21.419 51.702-17.053 25.429c-5.02 7.488-4.075 17.169 2.299 23.544l44.172 44.172c6.376 6.375 16.058 7.317 23.544 2.297l25.43-17.052 51.7 21.419 5.922 30.036c1.745 8.846 9.26 15.023 18.275 15.023h62.468c9.015 0 16.53-6.178 18.275-15.024l5.922-30.034 51.701-21.42 25.428 17.051c7.488 5.022 17.169 4.078 23.546-2.297l44.171-44.171c6.376-6.376 7.322-16.059 2.3-23.545l-17.053-25.428 21.42-51.702 30.035-5.921c8.845-1.744 15.022-9.259 15.022-18.275v-31.233c0-3.866-3.134-7-7-7zm-7 38.233c0 2.276-1.499 4.1-3.73 4.54l-33.713 6.646c-2.297.453-4.216 2.025-5.113 4.188l-24.29 58.629c-.896 2.164-.651 4.633.653 6.578l19.142 28.543c1.267 1.889 1.037 4.238-.573 5.848l-44.171 44.171c-1.609 1.609-3.958 1.839-5.849.57l-28.543-19.14c-1.945-1.304-4.414-1.549-6.578-.653l-58.628 24.29c-2.164.896-3.735 2.815-4.188 5.113l-6.647 33.712c-.44 2.232-2.265 3.732-4.54 3.732h-62.468c-2.275 0-4.1-1.5-4.54-3.732l-6.647-33.713c-.453-2.298-2.025-4.216-4.188-5.113l-58.627-24.289c-.862-.357-1.772-.533-2.679-.533-1.369 0-2.729.401-3.899 1.187l-28.544 19.14c-1.89 1.267-4.24 1.038-5.848-.57l-44.171-44.171c-1.608-1.609-1.838-3.959-.571-5.849l19.141-28.542c1.305-1.945 1.55-4.414.653-6.578l-24.289-58.629c-.896-2.164-2.815-3.735-5.113-4.188l-33.712-6.646c-2.232-.44-3.731-2.265-3.731-4.54v-24.233h105.54c3.652 69.898 61.669 125.643 132.46 125.643s128.808-55.745 132.46-125.643h105.54v24.233zm-176.497-32.844c17.953-16.896 28.25-40.721 28.25-65.364 0-49.49-40.263-89.752-89.753-89.752s-89.753 40.263-89.753 89.752c0 24.642 10.297 48.466 28.25 65.364 7.732 7.277 12.375 16.047 13.804 26.071v10.336s0 .006 0 .01v22.149c0 10.19 7.81 18.584 17.758 19.525v7.536c0 11.823 9.619 21.441 21.441 21.441h17c11.822 0 21.441-9.619 21.441-21.441v-7.536c9.947-.941 17.758-9.335 17.758-19.525v-22.158s0-.006 0-.01v-10.326c1.429-10.024 6.072-18.794 13.805-26.072zm-113.411-10.195c-15.377-14.473-23.845-34.066-23.845-55.169 0-41.77 33.983-75.752 75.753-75.752s75.753 33.982 75.753 75.752c0 21.105-8.468 40.698-23.845 55.169-10.253 9.65-16.359 21.381-18.149 34.867-.041.305-.061.613-.061.921v3.815h-26.147c.791-16.651-1.787-29.432-3.916-39.969-3.74-18.51-5.333-26.449 13.976-38.667 11.604-.656 22.386-6.994 28.544-16.942 6.576-10.623 7.125-24.131 1.433-35.253-1.012-1.977-2.901-3.356-5.092-3.717-2.192-.363-4.423.338-6.016 1.884-2.604 2.527-6.343 5.128-11.117 7.731-.1.054-.198.111-.294.17-12.589 7.68-19.223 21.688-17.474 35.97-4.237 2.882-7.665 5.726-10.401 8.556-4.475-9.172-12.227-16.646-22.263-20.751-.105-.043-.21-.083-.317-.121-6.221-2.199-11.222-4.608-14.864-7.16-1.818-1.273-4.133-1.61-6.238-.905s-3.752 2.366-4.437 4.478c-4.449 13.718-1.349 29.011 8.091 39.912 7.694 8.885 18.879 14.006 30.448 14.279.474 4.263 1.361 8.674 2.297 13.308 2.097 10.375 4.435 21.979 3.621 37.196h-27.233v-3.815c0-.308-.021-.615-.061-.92-1.789-13.486-7.895-25.217-18.148-34.867zm19.66-34.345c-4.26-4.919-6.57-11.188-6.678-17.558 2.662 1.241 5.567 2.421 8.704 3.536 9.915 4.118 16.492 13.135 17.566 23.468-7.457-.332-14.624-3.708-19.592-9.446zm53.571-19.387c.025-7.791 4.011-15.127 10.905-19.395 1.879-1.029 3.625-2.059 5.246-3.095.27 4.463-.813 8.988-3.221 12.878-2.947 4.761-7.63 8.17-12.93 9.612zm-12.823 156.995h-17c-4.104 0-7.441-3.338-7.441-7.441v-7.442h31.882v7.442c0 4.104-3.338 7.441-7.441 7.441zm25.199-34.502c0 3.099-2.521 5.619-5.619 5.619h-56.16c-3.098 0-5.619-2.521-5.619-5.619v-15.158h33.689.018.021 33.67zm88.761-114.877c-2.43 2.67-2.43 6.75 0 9.421 9.526 10.472 23.105 16.478 37.254 16.478s27.727-6.006 37.253-16.478c2.43-2.67 2.43-6.75 0-9.421-9.526-10.472-23.105-16.478-37.253-16.478s-27.728 6.006-37.254 16.478zm37.254 11.898c-7.855 0-15.468-2.564-21.693-7.188 6.226-4.624 13.838-7.188 21.693-7.188s15.467 2.564 21.693 7.188c-6.226 4.624-13.838 7.188-21.693 7.188zm-51.305-64.338c4.99 1.593 10.154 2.379 15.301 2.379 8.765 0 17.48-2.279 25.2-6.736 12.253-7.074 21.009-19.064 24.024-32.896.769-3.527-1.271-7.061-4.71-8.159-13.487-4.306-28.249-2.718-40.501 4.357-12.253 7.074-21.009 19.064-24.024 32.896-.769 3.528 1.271 7.061 4.71 8.159zm26.313-28.932c6.804-3.928 14.679-5.515 22.381-4.622-3.08 7.117-8.39 13.144-15.193 17.072-6.803 3.927-14.678 5.512-22.381 4.622 3.08-7.117 8.39-13.145 15.193-17.072zm-70.908-17.454c.494 0 .995-.053 1.495-.162 13.833-3.016 25.823-11.772 32.896-24.024 7.074-12.253 8.663-27.015 4.357-40.501-1.098-3.439-4.63-5.476-8.159-4.71-13.832 3.015-25.822 11.771-32.897 24.024-7.074 12.253-8.662 27.015-4.357 40.501.942 2.952 3.678 4.873 6.664 4.873zm9.817-38.374c3.928-6.803 9.955-12.113 17.072-15.193.891 7.704-.694 15.579-4.622 22.381-3.927 6.803-9.955 12.113-17.072 15.193-.891-7.704.694-15.579 4.621-22.381zm-78.341 19.45c1.335 1.215 3.023 1.822 4.71 1.822s3.375-.607 4.71-1.822c10.472-9.526 16.478-23.105 16.478-37.254s-6.006-27.727-16.478-37.253c-2.67-2.429-6.75-2.43-9.421 0-10.472 9.526-16.478 23.104-16.478 37.253s6.006 27.728 16.478 37.254zm4.71-58.947c4.624 6.226 7.188 13.838 7.188 21.693s-2.564 15.468-7.188 21.694c-4.624-6.226-7.188-13.838-7.188-21.694s2.565-15.467 7.188-21.693zm-65.31 77.709c.501.109 1.001.162 1.495.162 2.986 0 5.722-1.921 6.664-4.872 4.305-13.486 2.717-28.249-4.357-40.501-7.075-12.253-19.065-21.009-32.897-24.024-3.533-.769-7.061 1.271-8.159 4.71-4.305 13.486-2.717 28.248 4.357 40.501s19.064 21.009 32.896 24.024zm-25.394-53.405c7.117 3.08 13.145 8.39 17.072 15.193 3.927 6.802 5.512 14.677 4.621 22.381-7.117-3.08-13.145-8.39-17.072-15.193s-5.512-14.677-4.622-22.381zm-58.207 95.595c7.72 4.457 16.435 6.736 25.2 6.736 5.147 0 10.312-.786 15.302-2.379 3.439-1.098 5.479-4.632 4.71-8.159-3.015-13.832-11.772-25.822-24.024-32.896-12.254-7.075-27.016-8.663-40.501-4.357-3.439 1.098-5.479 4.632-4.71 8.159 3.015 13.832 11.771 25.822 24.024 32.896zm14.188-24.575c6.803 3.928 12.113 9.955 15.193 17.072-7.706.888-15.58-.695-22.381-4.622-6.803-3.928-12.113-9.955-15.193-17.072 7.701-.891 15.578.694 22.381 4.622zm-24.991 107.27c14.149 0 27.728-6.006 37.254-16.478 2.43-2.67 2.43-6.75 0-9.421-9.526-10.472-23.105-16.478-37.254-16.478s-27.727 6.006-37.253 16.478c-2.43 2.67-2.43 6.75 0 9.421 9.526 10.472 23.105 16.478 37.253 16.478zm0-28.376c7.855 0 15.468 2.564 21.693 7.188-6.226 4.624-13.838 7.188-21.693 7.188s-15.467-2.564-21.693-7.188c6.226-4.624 13.838-7.188 21.693-7.188z"/></svg>