<svg id="Layer_1" viewBox="0 0 64 64" xmlns="http://www.w3.org/2000/svg" data-name="Layer 1"><path d="m17.7568359 54.9707031h-2.0742188c-.5522461 0-1 .4477539-1 1s.4477539 1 1 1h2.0742188c.5522461 0 1-.4477539 1-1s-.4477539-1-1-1z"/><path d="m25.4360352 54.9707031h-2.0742188c-.5522461 0-1 .4477539-1 1s.4477539 1 1 1h2.0742188c.5522461 0 1-.4477539 1-1s-.4477539-1-1-1z"/><path d="m33.1147461 54.9707031h-2.0742188c-.5522461 0-1 .4477539-1 1s.4477539 1 1 1h2.0742188c.5522461 0 1-.4477539 1-1s-.4477539-1-1-1z"/><path d="m40.7939453 54.9707031h-2.0742188c-.5522461 0-1 .4477539-1 1s.4477539 1 1 1h2.0742188c.5522461 0 1-.4477539 1-1s-.4477539-1-1-1z"/><path d="m47.0317383 26.2973633h-7.206543l6.5966797-6.4521484c.3950195-.3862305.4018555-1.019043.015625-1.4140625-.3862305-.3955078-1.0200195-.4023438-1.4140625-.015625l-8.3500977 8.1669922c-.2905273.2841797-.3803711.7158203-.2265625 1.0922852.1533203.3764648.5195312.6225586.9257812.6225586h7.206543l-6.5966797 6.4516602c-.3950195.3862305-.4018555 1.019043-.015625 1.4140625.1958008.2001953.4550781.3007812.7148438.3007812.2524414 0 .5048828-.0947266.6992188-.2851562l8.3500977-8.1665039c.2905273-.2841797.3803711-.7158203.2265625-1.0922852-.1533203-.3764648-.5195312-.6225586-.9257812-.6225586z"/><path d="m57.1660156 27.2973633c0-5.5432739-3.0371704-10.3814087-7.527832-12.967041v-6.3005371c0-3.324707-2.7050781-6.0297852-6.0297852-6.0297852h-30.7402343c-1.6147461 0-3.1303711.6259766-4.2592773 1.7553711-1.1416016 1.1166992-1.7705078 2.6347656-1.7705078 4.2744141v47.8506469c-.0004272.0302734-.0043945.0599365-.0043945.090271 0 3.324707 2.7045898 6.0292969 6.0292969 6.0292969h30.75c1.5869141 0 3.0986328-.6245117 4.2636719-1.7651367 1.1386719-1.1381836 1.765625-2.6523438 1.765625-4.2641602 0-.0292969-.0039673-.0575562-.0043945-.086731v-15.6199341c4.4906616-2.5854492 7.527832-7.4234009 7.527832-12.9666748zm-13.5527344 32.7026367h-30.75c-2.2167969 0-4.0199585-1.8000488-4.0278931-4.0151367.000061-.005188.0029907-.0094604.0029907-.0146484 0-.3009033.0369873-.5910034.097168-.8729248.1630859-.7421265.5258789-1.4244385 1.0703125-1.9688721.7822266-.765625 1.796875-1.1870117 2.8574219-1.1870117h30.75c.2859497 0 .5641479.0321045.833374.0889893 1.8206787.387207 3.1915283 2.0053711 3.1915283 3.9398193 0 .005249.0029297.0095825.0029907.0148315-.0037842 1.0716553-.4209595 2.0779419-1.1709595 2.8279419-.7817383.765625-1.7963867 1.1870117-2.8569336 1.1870117zm4.0249023-8.5117188c-.0117188-.0105591-.026062-.0179443-.0379028-.0284424-.2436523-.2155762-.5039673-.411438-.7802124-.5858765-.0345459-.0218506-.069458-.0423584-.1044922-.0635376-.2765503-.1668701-.5657349-.3138428-.8688354-.4352417-.0393066-.0158081-.0794678-.0287476-.1192017-.0437622-.3078003-.1157837-.6252441-.2111206-.9544678-.2755737-.0352783-.006897-.0715332-.0100098-.1069946-.0163574-.335083-.0593262-.6781006-.09552-1.0296631-.0969238-.0095825-.000061-.0184326-.0026245-.0280151-.0026245h-30.7402343c-.0097656 0-.019104.0025635-.0288696.0026245-.3342285.0012817-.6640015.0349121-.9889526.0906372-.0374756.0064697-.0753174.0095825-.1126099.0167236-.3148193.0601807-.6219482.1501465-.9226685.2597656-.0496216.0180664-.0995483.0337524-.1486816.0531616-.2884521.1138306-.5671387.2527466-.8373413.4109497-.0543823.0317993-.1083984.0629883-.1619263.0964966-.2616577.1641235-.512207.3493652-.7513428.5545044-.0245972.0211182-.0530396.0355835-.0773926.0571289v-43.4521483c0-1.097168.4150391-2.1074219 1.1767578-2.8525391.7592773-.7592773 1.7724609-1.1772461 2.8530273-1.1772461h30.7402344c2.222168 0 4.0297852 1.8076172 4.0297852 4.0297852v5.3410645c-1.6875-.6611938-3.5169678-1.0373535-5.4360352-1.0373535-8.2509766 0-14.9638672 6.7128906-14.9638672 14.9638672s6.7128906 14.9633789 14.9638672 14.9633789c1.9190674 0 3.7485352-.3761597 5.4360352-1.0372925v10.2648315zm-5.4360352-11.2275391c-7.1484375 0-12.9638672-5.8154297-12.9638672-12.9633789 0-7.1484375 5.8154297-12.9638672 12.9638672-12.9638672s12.9638672 5.8154297 12.9638672 12.9638672c0 7.1479492-5.8154297 12.9633789-12.9638672 12.9633789z"/></svg>